<svg xmlns="http://www.w3.org/2000/svg" xmlns:xlink="http://www.w3.org/1999/xlink" width="500" zoomAndPan="magnify" viewBox="0 0 375 374.999991" height="500" preserveAspectRatio="xMidYMid meet" version="1.0"><defs><g/><clipPath id="913cb68a54"><path d="M 115 98 L 211 98 L 211 203 L 115 203 Z M 115 98 " clip-rule="nonzero"/></clipPath><clipPath id="483660027d"><path d="M 120.480469 92.566406 L 269.136719 112.625 L 255.195312 215.9375 L 106.542969 195.878906 Z M 120.480469 92.566406 " clip-rule="nonzero"/></clipPath><clipPath id="c2d513738b"><path d="M 120.480469 92.566406 L 269.136719 112.625 L 255.195312 215.9375 L 106.542969 195.878906 Z M 120.480469 92.566406 " clip-rule="nonzero"/></clipPath><clipPath id="69bfb881f3"><path d="M 141 107 L 265 107 L 265 207 L 141 207 Z M 141 107 " clip-rule="nonzero"/></clipPath><clipPath id="5ece693b19"><path d="M 120.480469 92.566406 L 269.136719 112.625 L 255.195312 215.9375 L 106.542969 195.878906 Z M 120.480469 92.566406 " clip-rule="nonzero"/></clipPath><clipPath id="f192f40e54"><path d="M 120.480469 92.566406 L 269.136719 112.625 L 255.195312 215.9375 L 106.542969 195.878906 Z M 120.480469 92.566406 " clip-rule="nonzero"/></clipPath></defs><rect x="-37.5" width="450" fill="#ffffff" y="-37.499999" height="449.999989" fill-opacity="1"/><rect x="-37.5" width="450" fill="#ffffff" y="-37.499999" height="449.999989" fill-opacity="1"/><rect x="-37.5" width="450" fill="#ffffff" y="-37.499999" height="449.999989" fill-opacity="1"/><g clip-path="url(#913cb68a54)"><g clip-path="url(#483660027d)"><g clip-path="url(#c2d513738b)"><path fill="#000000" d="M 182.457031 191.589844 C 181.675781 191.371094 180.882812 191.195312 180.097656 190.996094 L 178.914062 190.703125 L 177.722656 190.445312 L 175.335938 189.941406 L 172.925781 189.523438 L 171.722656 189.320312 L 170.511719 189.15625 L 168.085938 188.824219 L 165.648438 188.574219 L 164.425781 188.449219 L 163.191406 188.367188 C 159.890625 188.160156 156.585938 188.148438 153.308594 188.351562 C 148.652344 188.625 144.035156 189.242188 139.5 190.125 C 140.171875 187.386719 140.6875 184.59375 141.019531 181.777344 C 143.394531 181.246094 145.875 180.820312 148.351562 180.464844 C 151.363281 180.03125 154.402344 179.695312 157.441406 179.457031 C 160.480469 179.21875 163.527344 179.082031 166.558594 179.109375 C 168.074219 179.128906 169.574219 179.183594 171.082031 179.292969 C 172.597656 179.382812 174.105469 179.546875 175.617188 179.726562 C 187.6875 181.238281 199.484375 185.597656 209.917969 192.261719 L 210.140625 191.945312 C 205.167969 188.207031 199.777344 184.988281 194.070312 182.382812 C 188.363281 179.78125 182.34375 177.804688 176.140625 176.539062 C 174.589844 176.230469 173.03125 175.941406 171.460938 175.726562 C 169.890625 175.492188 168.292969 175.347656 166.714844 175.226562 C 163.550781 174.996094 160.394531 174.941406 157.238281 174.988281 C 154.085938 175.035156 150.941406 175.1875 147.792969 175.441406 C 145.683594 175.613281 143.59375 175.816406 141.46875 176.117188 C 141.59375 173.117188 141.539062 170.117188 141.289062 167.152344 C 140.90625 162.4375 140.246094 157.75 139.28125 153.140625 C 138.796875 150.832031 138.226562 148.546875 137.546875 146.296875 C 136.867188 144.050781 136.09375 141.832031 135.132812 139.703125 C 135.675781 141.972656 136.074219 144.253906 136.367188 146.550781 C 136.65625 148.84375 136.851562 151.148438 136.984375 153.449219 C 137.160156 156.75 137.203125 160.046875 137.125 163.335938 C 134.855469 161.152344 132.765625 158.78125 130.914062 156.285156 C 129.519531 154.398438 128.277344 152.421875 127.234375 150.398438 C 126.710938 149.386719 126.246094 148.363281 125.859375 147.332031 C 125.765625 147.078125 125.664062 146.816406 125.578125 146.5625 C 125.492188 146.308594 125.40625 146.046875 125.324219 145.765625 L 125.074219 144.949219 L 124.851562 144.125 C 123.6875 139.714844 123.285156 135.105469 123.703125 130.589844 C 123.894531 128.339844 124.300781 126.09375 124.875 123.941406 C 125.464844 121.796875 126.265625 119.734375 127.277344 117.839844 C 128.292969 115.949219 129.5 114.214844 130.917969 112.777344 C 131.625 112.058594 132.382812 111.410156 133.1875 110.839844 C 133.578125 110.566406 134.015625 110.273438 134.464844 110.011719 C 134.914062 109.746094 135.367188 109.492188 135.835938 109.261719 C 137.699219 108.304688 139.710938 107.683594 141.730469 107.183594 C 143.753906 106.691406 145.820312 106.304688 147.9375 106.234375 C 149 106.203125 150.050781 106.265625 151.113281 106.417969 C 152.28125 106.613281 153.449219 106.851562 154.609375 107.125 C 156.933594 107.683594 159.246094 108.371094 161.496094 109.242188 C 163.757812 110.09375 165.960938 111.125 168.050781 112.386719 C 170.15625 113.636719 172.128906 115.128906 173.890625 116.9375 L 173.992188 116.863281 C 173.410156 115.734375 172.714844 114.652344 171.941406 113.625 C 171.167969 112.59375 170.324219 111.601562 169.410156 110.683594 C 167.582031 108.832031 165.550781 107.167969 163.394531 105.671875 C 161.226562 104.199219 158.949219 102.863281 156.570312 101.722656 C 155.378906 101.144531 154.167969 100.605469 152.929688 100.105469 C 151.589844 99.574219 150.183594 99.140625 148.757812 98.84375 C 145.898438 98.222656 142.914062 98.101562 140.035156 98.585938 C 137.144531 99.058594 134.390625 100.105469 131.8125 101.449219 C 131.164062 101.789062 130.53125 102.152344 129.914062 102.539062 C 129.292969 102.921875 128.691406 103.332031 128.070312 103.785156 C 126.847656 104.691406 125.71875 105.699219 124.695312 106.78125 C 122.644531 108.953125 121.003906 111.398438 119.734375 113.957031 C 118.445312 116.507812 117.515625 119.175781 116.859375 121.875 C 116.230469 124.582031 115.8125 127.292969 115.679688 130.035156 C 115.554688 132.773438 115.644531 135.515625 116.003906 138.222656 C 116.355469 140.929688 116.925781 143.609375 117.769531 146.199219 L 118.085938 147.167969 L 118.4375 148.128906 C 118.660156 148.761719 118.941406 149.441406 119.214844 150.074219 C 119.777344 151.359375 120.414062 152.585938 121.101562 153.765625 C 122.476562 156.128906 124.058594 158.300781 125.761719 160.34375 C 127.464844 162.386719 129.308594 164.28125 131.261719 166.050781 C 132.988281 167.617188 134.820312 169.0625 136.738281 170.402344 C 136.625 171.585938 136.492188 172.761719 136.320312 173.941406 C 136.011719 176.167969 135.566406 178.367188 135.066406 180.554688 C 134.816406 181.648438 134.539062 182.734375 134.269531 183.824219 L 133.394531 187.074219 L 131.527344 193.605469 L 131.527344 193.609375 L 130.011719 199.007812 L 135.46875 197.855469 C 138.542969 197.203125 141.589844 196.558594 144.648438 195.996094 C 146.179688 195.722656 147.707031 195.457031 149.238281 195.222656 C 150.003906 195.101562 150.769531 194.992188 151.535156 194.890625 C 152.300781 194.78125 153.066406 194.691406 153.832031 194.59375 C 154.601562 194.5 155.367188 194.429688 156.132812 194.347656 L 158.4375 194.160156 C 159.972656 194.050781 161.507812 193.960938 163.042969 193.949219 L 164.195312 193.929688 L 165.359375 193.941406 L 167.695312 193.964844 L 170.027344 194.066406 L 171.191406 194.117188 L 172.359375 194.203125 C 175.472656 194.40625 178.578125 194.785156 181.679688 195.246094 C 184.777344 195.734375 187.863281 196.34375 190.925781 197.078125 C 197.0625 198.542969 203.105469 200.53125 209.019531 202.953125 C 203.5625 199.625 197.757812 196.792969 191.703125 194.542969 C 188.671875 193.4375 185.59375 192.414062 182.457031 191.589844 Z M 182.457031 191.589844 " fill-opacity="1" fill-rule="nonzero"/></g></g></g><g clip-path="url(#69bfb881f3)"><g clip-path="url(#5ece693b19)"><g clip-path="url(#f192f40e54)"><path fill="#000000" d="M 264.464844 144.679688 C 264.519531 142.3125 264.402344 139.960938 264.136719 137.628906 C 263.871094 135.289062 263.445312 132.933594 262.78125 130.589844 C 262.109375 128.246094 261.214844 125.9375 260.015625 123.695312 C 258.816406 121.425781 257.253906 119.308594 255.453125 117.4375 C 253.640625 115.582031 251.578125 113.988281 249.386719 112.699219 C 244.980469 110.128906 240.152344 108.742188 235.398438 108.136719 C 233.019531 107.824219 230.613281 107.742188 228.300781 107.765625 C 225.96875 107.796875 223.648438 107.96875 221.355469 108.265625 C 216.765625 108.84375 212.285156 109.898438 207.964844 111.320312 C 205.804688 112.023438 203.679688 112.808594 201.597656 113.683594 C 199.519531 114.5625 197.476562 115.507812 195.507812 116.484375 C 193.535156 117.449219 191.613281 118.457031 189.730469 119.445312 C 187.847656 120.433594 185.988281 121.402344 184.136719 122.300781 C 183.214844 122.761719 182.296875 123.203125 181.375 123.632812 L 178.492188 124.945312 C 176.59375 125.796875 174.710938 126.589844 172.847656 127.292969 C 169.128906 128.707031 165.390625 129.683594 162.011719 129.507812 C 158.574219 129.367188 155.101562 128.152344 151.785156 126.078125 C 150.121094 125.054688 148.503906 123.835938 146.925781 122.484375 C 145.335938 121.136719 143.808594 119.648438 142.21875 118.101562 L 141.878906 118.292969 C 142.398438 120.46875 143.238281 122.558594 144.3125 124.5625 C 145.394531 126.558594 146.730469 128.460938 148.34375 130.191406 C 149.96875 131.902344 151.867188 133.457031 154.054688 134.648438 C 154.601562 134.941406 155.15625 135.226562 155.734375 135.484375 C 156.3125 135.730469 156.898438 135.960938 157.5 136.164062 C 158.699219 136.582031 159.945312 136.867188 161.210938 137.054688 C 162.472656 137.246094 163.773438 137.320312 165.023438 137.28125 C 166.277344 137.25 167.503906 137.144531 168.695312 136.96875 C 171.085938 136.625 173.359375 136.066406 175.554688 135.417969 C 177.75 134.769531 179.847656 133.988281 181.902344 133.214844 L 184.933594 132.035156 C 185.976562 131.621094 187.019531 131.199219 188.03125 130.757812 C 190.066406 129.867188 192.042969 128.933594 193.984375 128.011719 L 199.71875 125.296875 C 201.601562 124.414062 203.464844 123.605469 205.34375 122.859375 C 207.21875 122.105469 209.109375 121.414062 211.023438 120.808594 C 214.847656 119.601562 218.71875 118.660156 222.625 118.164062 C 226.507812 117.660156 230.480469 117.511719 234.175781 117.957031 C 237.898438 118.394531 241.457031 119.445312 244.464844 121.167969 C 245.972656 122.027344 247.332031 123.0625 248.527344 124.246094 C 249.707031 125.449219 250.734375 126.789062 251.546875 128.292969 C 252.390625 129.816406 253.078125 131.507812 253.605469 133.273438 C 254.144531 135.035156 254.535156 136.898438 254.796875 138.804688 C 255.054688 140.714844 255.199219 142.648438 255.203125 144.5625 C 255.199219 146.472656 255.046875 148.367188 254.769531 150.222656 C 254.472656 152.074219 254.027344 153.878906 253.414062 155.609375 C 252.78125 157.332031 252.007812 158.976562 251.023438 160.542969 C 249.085938 163.683594 246.472656 166.503906 243.433594 168.828125 C 241.898438 169.988281 240.261719 171.074219 238.558594 172.023438 C 236.851562 172.980469 235.066406 173.796875 233.226562 174.519531 C 231.390625 175.238281 229.492188 175.839844 227.550781 176.328125 C 226.640625 176.5625 225.722656 176.769531 224.796875 176.953125 C 224.832031 176.648438 224.878906 176.351562 224.917969 176.046875 C 225.007812 175.390625 225.070312 174.734375 225.136719 174.070312 C 225.210938 173.414062 225.273438 172.753906 225.3125 172.089844 L 225.382812 171.09375 L 225.417969 170.59375 L 225.417969 169.945312 C 225.398438 169.101562 225.292969 168.308594 225.140625 167.535156 C 224.828125 165.996094 224.339844 164.546875 223.59375 163.121094 C 223.222656 162.402344 222.785156 161.695312 222.214844 160.988281 C 222.0625 160.808594 221.921875 160.632812 221.757812 160.453125 C 221.582031 160.273438 221.402344 160.09375 221.21875 159.917969 C 221.03125 159.753906 220.839844 159.59375 220.640625 159.4375 C 220.445312 159.285156 220.242188 159.148438 220.042969 159.003906 C 218.394531 157.925781 216.675781 157.441406 215.121094 157.167969 C 213.558594 156.917969 212.082031 156.878906 210.753906 156.875 C 208.054688 156.867188 205.390625 157.019531 202.769531 157.285156 C 197.519531 157.8125 192.441406 158.730469 187.421875 159.429688 C 186.164062 159.605469 184.914062 159.773438 183.664062 159.910156 C 182.402344 160.0625 181.191406 160.144531 179.949219 160.257812 C 177.476562 160.410156 174.996094 160.410156 172.519531 160.289062 C 170.046875 160.132812 167.578125 159.816406 165.136719 159.34375 C 162.695312 158.847656 160.289062 158.15625 157.925781 157.308594 C 155.5625 156.445312 153.277344 155.363281 151.035156 154.15625 C 148.8125 152.921875 146.679688 151.5 144.597656 149.96875 C 146.371094 151.839844 148.273438 153.621094 150.347656 155.210938 C 152.429688 156.785156 154.644531 158.210938 156.976562 159.445312 C 159.324219 160.648438 161.777344 161.671875 164.300781 162.515625 C 166.835938 163.316406 169.433594 163.925781 172.0625 164.378906 C 174.699219 164.789062 177.359375 165.019531 180.027344 165.109375 L 182.03125 165.128906 C 182.699219 165.140625 183.359375 165.125 184.015625 165.105469 C 185.328125 165.078125 186.636719 165.019531 187.941406 164.953125 C 193.15625 164.6875 198.273438 164.222656 203.273438 163.972656 C 205.777344 163.851562 208.25 163.765625 210.695312 163.804688 C 211.316406 163.808594 211.902344 163.816406 212.449219 163.847656 C 213.003906 163.878906 213.527344 163.933594 214.011719 164.011719 C 214.984375 164.15625 215.785156 164.417969 216.300781 164.742188 L 216.488281 164.863281 C 216.542969 164.910156 216.597656 164.953125 216.652344 164.996094 C 216.703125 165.046875 216.75 165.089844 216.800781 165.132812 L 216.984375 165.324219 C 217.234375 165.605469 217.5 165.984375 217.757812 166.386719 C 218.261719 167.203125 218.722656 168.164062 219.0625 169.113281 C 219.230469 169.589844 219.375 170.0625 219.472656 170.5 C 219.492188 170.601562 219.511719 170.707031 219.539062 170.8125 L 219.597656 171.28125 L 219.714844 172.210938 C 219.796875 172.835938 219.871094 173.460938 219.9375 174.082031 C 220.011719 174.707031 220.082031 175.335938 220.132812 175.96875 C 220.382812 178.484375 220.484375 181.027344 220.464844 183.570312 C 220.429688 186.113281 220.316406 188.667969 220.148438 191.222656 C 219.808594 196.332031 219.195312 201.445312 218.496094 206.550781 L 218.882812 206.625 C 220.132812 201.628906 221.367188 196.617188 222.410156 191.535156 C 222.929688 189.015625 223.390625 186.476562 223.792969 183.917969 C 225.546875 183.753906 227.296875 183.519531 229.046875 183.203125 C 231.285156 182.785156 233.519531 182.226562 235.710938 181.519531 C 240.101562 180.101562 244.320312 178.039062 248.183594 175.378906 C 252.0625 172.679688 255.558594 169.300781 258.285156 165.261719 C 259.652344 163.25 260.796875 161.039062 261.710938 158.773438 C 262.605469 156.5 263.273438 154.152344 263.730469 151.792969 C 264.179688 149.425781 264.402344 147.046875 264.464844 144.679688 Z M 264.464844 144.679688 " fill-opacity="1" fill-rule="nonzero"/></g></g></g><g fill="#000000" fill-opacity="1"><g transform="translate(88.728852, 248.034358)"><g><path d="M 21.125 0.828125 C 18.601562 0.828125 17.34375 -0.253906 17.34375 -2.421875 C 17.34375 -3.128906 17.445312 -3.941406 17.65625 -4.859375 C 17.863281 -5.785156 18.164062 -6.976562 18.5625 -8.4375 C 19.007812 -9.945312 19.347656 -11.234375 19.578125 -12.296875 C 19.804688 -13.367188 19.921875 -14.328125 19.921875 -15.171875 C 19.921875 -17.359375 18.945312 -18.453125 17 -18.453125 C 16.488281 -18.453125 15.957031 -18.390625 15.40625 -18.265625 L 11.53125 0 L 4.546875 0 L 11.140625 -30.8125 L 18.3125 -31.78125 L 15.9375 -20.59375 L 16.328125 -20.59375 C 17.585938 -20.59375 18.75 -21.023438 19.8125 -21.890625 C 20.882812 -22.765625 21.71875 -23.859375 22.3125 -25.171875 C 22.90625 -26.484375 23.203125 -27.765625 23.203125 -29.015625 C 23.203125 -30.503906 22.757812 -31.722656 21.875 -32.671875 C 20.988281 -33.628906 19.65625 -34.109375 17.875 -34.109375 C 15.257812 -34.109375 12.96875 -33.640625 11 -32.703125 C 9.03125 -31.765625 7.503906 -30.40625 6.421875 -28.625 C 5.335938 -26.851562 4.796875 -24.757812 4.796875 -22.34375 C 4.796875 -21.144531 4.90625 -20.3125 5.125 -19.84375 C 5.351562 -19.375 5.46875 -19.109375 5.46875 -19.046875 C 3.726562 -19.046875 2.429688 -19.40625 1.578125 -20.125 C 0.722656 -20.851562 0.296875 -22.054688 0.296875 -23.734375 C 0.296875 -25.804688 1.140625 -27.816406 2.828125 -29.765625 C 4.523438 -31.722656 6.695312 -33.304688 9.34375 -34.515625 C 12 -35.734375 14.648438 -36.34375 17.296875 -36.34375 C 19.722656 -36.34375 21.757812 -35.984375 23.40625 -35.265625 C 25.050781 -34.554688 26.273438 -33.613281 27.078125 -32.4375 C 27.890625 -31.257812 28.296875 -29.976562 28.296875 -28.59375 C 28.296875 -27.070312 27.828125 -25.550781 26.890625 -24.03125 C 25.953125 -22.507812 24.675781 -21.265625 23.0625 -20.296875 C 24.289062 -19.941406 25.15625 -19.351562 25.65625 -18.53125 C 26.15625 -17.707031 26.40625 -16.679688 26.40625 -15.453125 C 26.40625 -14.515625 26.289062 -13.519531 26.0625 -12.46875 C 25.84375 -11.425781 25.519531 -10.128906 25.09375 -8.578125 C 24.84375 -7.578125 24.601562 -6.59375 24.375 -5.625 C 24.144531 -4.65625 24.03125 -3.847656 24.03125 -3.203125 C 24.03125 -2.453125 24.195312 -1.785156 24.53125 -1.203125 C 24.875 -0.628906 25.335938 -0.226562 25.921875 0 C 23.953125 0.550781 22.351562 0.828125 21.125 0.828125 Z M 21.125 0.828125 "/></g></g></g><g fill="#000000" fill-opacity="1"><g transform="translate(117.851489, 248.034358)"><g><path d="M 6.921875 0.296875 C 4.535156 0.296875 2.679688 -0.320312 1.359375 -1.5625 C 0.0351562 -2.8125 -0.625 -4.757812 -0.625 -7.40625 C -0.625 -9.632812 -0.191406 -12.085938 0.671875 -14.765625 C 1.546875 -17.453125 2.96875 -19.769531 4.9375 -21.71875 C 6.90625 -23.675781 9.410156 -24.65625 12.453125 -24.65625 C 16.003906 -24.65625 17.78125 -23.109375 17.78125 -20.015625 C 17.78125 -18.203125 17.265625 -16.535156 16.234375 -15.015625 C 15.203125 -13.503906 13.828125 -12.285156 12.109375 -11.359375 C 10.398438 -10.441406 8.578125 -9.914062 6.640625 -9.78125 C 6.578125 -8.8125 6.546875 -8.164062 6.546875 -7.84375 C 6.546875 -6.257812 6.816406 -5.1875 7.359375 -4.625 C 7.910156 -4.0625 8.800781 -3.78125 10.03125 -3.78125 C 11.769531 -3.78125 13.257812 -4.179688 14.5 -4.984375 C 15.75 -5.796875 17.117188 -7.023438 18.609375 -8.671875 L 20.25 -8.671875 C 16.664062 -2.691406 12.222656 0.296875 6.921875 0.296875 Z M 7.03125 -12.109375 C 8.21875 -12.171875 9.351562 -12.585938 10.4375 -13.359375 C 11.519531 -14.140625 12.390625 -15.128906 13.046875 -16.328125 C 13.710938 -17.523438 14.046875 -18.785156 14.046875 -20.109375 C 14.046875 -21.429688 13.644531 -22.09375 12.84375 -22.09375 C 11.675781 -22.09375 10.535156 -21.070312 9.421875 -19.03125 C 8.304688 -17 7.507812 -14.691406 7.03125 -12.109375 Z M 7.03125 -12.109375 "/></g></g></g><g fill="#000000" fill-opacity="1"><g transform="translate(136.458963, 248.034358)"><g><path d="M 6.921875 0.296875 C 4.535156 0.296875 2.679688 -0.320312 1.359375 -1.5625 C 0.0351562 -2.8125 -0.625 -4.757812 -0.625 -7.40625 C -0.625 -9.632812 -0.179688 -12.085938 0.703125 -14.765625 C 1.585938 -17.453125 3.003906 -19.769531 4.953125 -21.71875 C 6.910156 -23.675781 9.394531 -24.65625 12.40625 -24.65625 C 14.34375 -24.65625 15.722656 -24.234375 16.546875 -23.390625 C 17.367188 -22.554688 17.78125 -21.492188 17.78125 -20.203125 C 17.78125 -19.078125 17.535156 -18.207031 17.046875 -17.59375 C 16.566406 -16.976562 15.957031 -16.671875 15.21875 -16.671875 C 14.664062 -16.671875 14.097656 -16.863281 13.515625 -17.25 C 13.898438 -18.3125 14.09375 -19.265625 14.09375 -20.109375 C 14.09375 -20.722656 13.976562 -21.207031 13.75 -21.5625 C 13.53125 -21.914062 13.195312 -22.09375 12.75 -22.09375 C 11.78125 -22.09375 10.804688 -21.300781 9.828125 -19.71875 C 8.859375 -18.132812 8.066406 -16.210938 7.453125 -13.953125 C 6.847656 -11.691406 6.546875 -9.65625 6.546875 -7.84375 C 6.546875 -6.257812 6.816406 -5.1875 7.359375 -4.625 C 7.910156 -4.0625 8.800781 -3.78125 10.03125 -3.78125 C 11.769531 -3.78125 13.257812 -4.179688 14.5 -4.984375 C 15.75 -5.796875 17.117188 -7.023438 18.609375 -8.671875 L 20.25 -8.671875 C 16.664062 -2.691406 12.222656 0.296875 6.921875 0.296875 Z M 6.921875 0.296875 "/></g></g></g><g fill="#000000" fill-opacity="1"><g transform="translate(155.066437, 248.034358)"><g><path d="M 8.09375 -26.84375 C 7.03125 -26.84375 6.125 -27.210938 5.375 -27.953125 C 4.632812 -28.703125 4.265625 -29.609375 4.265625 -30.671875 C 4.265625 -31.734375 4.632812 -32.644531 5.375 -33.40625 C 6.125 -34.164062 7.03125 -34.546875 8.09375 -34.546875 C 9.15625 -34.546875 10.066406 -34.164062 10.828125 -33.40625 C 11.585938 -32.644531 11.96875 -31.734375 11.96875 -30.671875 C 11.96875 -29.609375 11.585938 -28.703125 10.828125 -27.953125 C 10.066406 -27.210938 9.15625 -26.84375 8.09375 -26.84375 Z M 4.796875 0.296875 C 3.242188 0.296875 1.988281 -0.1875 1.03125 -1.15625 C 0.0820312 -2.125 -0.390625 -3.582031 -0.390625 -5.53125 C -0.390625 -6.332031 -0.257812 -7.378906 0 -8.671875 L 3.296875 -24.21875 L 10.265625 -24.21875 L 6.78125 -7.75 C 6.65625 -7.269531 6.59375 -6.753906 6.59375 -6.203125 C 6.59375 -5.554688 6.742188 -5.09375 7.046875 -4.8125 C 7.359375 -4.539062 7.867188 -4.40625 8.578125 -4.40625 C 9.515625 -4.40625 10.382812 -4.800781 11.1875 -5.59375 C 12 -6.382812 12.582031 -7.410156 12.9375 -8.671875 L 14.96875 -8.671875 C 13.769531 -5.179688 12.234375 -2.8125 10.359375 -1.5625 C 8.492188 -0.320312 6.640625 0.296875 4.796875 0.296875 Z M 4.796875 0.296875 "/></g></g></g><g fill="#000000" fill-opacity="1"><g transform="translate(168.004451, 248.034358)"><g><path d="M 3.6875 -26.015625 L 10.65625 -26.015625 L 9.890625 -22.390625 C 11.503906 -23.773438 13.390625 -24.46875 15.546875 -24.46875 C 17.359375 -24.46875 18.796875 -23.867188 19.859375 -22.671875 C 20.929688 -21.484375 21.46875 -19.53125 21.46875 -16.8125 C 21.46875 -14.257812 21.09375 -11.679688 20.34375 -9.078125 C 19.601562 -6.484375 18.34375 -4.269531 16.5625 -2.4375 C 14.789062 -0.613281 12.453125 0.296875 9.546875 0.296875 C 7.472656 0.296875 6.097656 -0.285156 5.421875 -1.453125 L 2.90625 10.375 L -4.40625 12.109375 Z M 8.046875 -3.921875 C 9.597656 -3.921875 10.878906 -4.644531 11.890625 -6.09375 C 12.910156 -7.550781 13.65625 -9.289062 14.125 -11.3125 C 14.59375 -13.332031 14.828125 -15.210938 14.828125 -16.953125 C 14.828125 -19.640625 14.019531 -20.984375 12.40625 -20.984375 C 11.820312 -20.984375 11.226562 -20.769531 10.625 -20.34375 C 10.03125 -19.925781 9.507812 -19.347656 9.0625 -18.609375 L 6.203125 -5.046875 C 6.460938 -4.296875 7.078125 -3.921875 8.046875 -3.921875 Z M 8.046875 -3.921875 "/></g></g></g><g fill="#000000" fill-opacity="1"><g transform="translate(190.682314, 248.034358)"><g><path d="M 6.921875 0.296875 C 4.535156 0.296875 2.679688 -0.320312 1.359375 -1.5625 C 0.0351562 -2.8125 -0.625 -4.757812 -0.625 -7.40625 C -0.625 -9.632812 -0.191406 -12.085938 0.671875 -14.765625 C 1.546875 -17.453125 2.96875 -19.769531 4.9375 -21.71875 C 6.90625 -23.675781 9.410156 -24.65625 12.453125 -24.65625 C 16.003906 -24.65625 17.78125 -23.109375 17.78125 -20.015625 C 17.78125 -18.203125 17.265625 -16.535156 16.234375 -15.015625 C 15.203125 -13.503906 13.828125 -12.285156 12.109375 -11.359375 C 10.398438 -10.441406 8.578125 -9.914062 6.640625 -9.78125 C 6.578125 -8.8125 6.546875 -8.164062 6.546875 -7.84375 C 6.546875 -6.257812 6.816406 -5.1875 7.359375 -4.625 C 7.910156 -4.0625 8.800781 -3.78125 10.03125 -3.78125 C 11.769531 -3.78125 13.257812 -4.179688 14.5 -4.984375 C 15.75 -5.796875 17.117188 -7.023438 18.609375 -8.671875 L 20.25 -8.671875 C 16.664062 -2.691406 12.222656 0.296875 6.921875 0.296875 Z M 7.03125 -12.109375 C 8.21875 -12.171875 9.351562 -12.585938 10.4375 -13.359375 C 11.519531 -14.140625 12.390625 -15.128906 13.046875 -16.328125 C 13.710938 -17.523438 14.046875 -18.785156 14.046875 -20.109375 C 14.046875 -21.429688 13.644531 -22.09375 12.84375 -22.09375 C 11.675781 -22.09375 10.535156 -21.070312 9.421875 -19.03125 C 8.304688 -17 7.507812 -14.691406 7.03125 -12.109375 Z M 7.03125 -12.109375 "/></g></g></g><g fill="#000000" fill-opacity="1"><g transform="translate(209.289788, 248.034358)"><g><path d="M 10.5625 5.53125 C 9.363281 5.53125 8.3125 5.429688 7.40625 5.234375 C 6.507812 5.035156 5.726562 4.566406 5.0625 3.828125 C 4.394531 3.085938 4.0625 1.941406 4.0625 0.390625 C 4.0625 -1.773438 4.71875 -4.679688 6.03125 -8.328125 C 7.34375 -11.984375 9.0625 -15.648438 11.1875 -19.328125 C 9.570312 -19.234375 8.296875 -18.992188 7.359375 -18.609375 C 6.421875 -18.222656 5.8125 -17.625 5.53125 -16.8125 C 5.65625 -16.8125 5.789062 -16.648438 5.9375 -16.328125 C 6.082031 -16.003906 6.15625 -15.664062 6.15625 -15.3125 C 6.15625 -14.726562 5.894531 -14.265625 5.375 -13.921875 C 4.863281 -13.585938 4.21875 -13.421875 3.4375 -13.421875 C 2.53125 -13.421875 1.800781 -13.660156 1.25 -14.140625 C 0.707031 -14.628906 0.4375 -15.328125 0.4375 -16.234375 C 0.4375 -17.328125 0.863281 -18.328125 1.71875 -19.234375 C 2.570312 -20.140625 3.757812 -20.859375 5.28125 -21.390625 C 6.800781 -21.921875 8.484375 -22.1875 10.328125 -22.1875 C 11.003906 -22.1875 11.84375 -22.140625 12.84375 -22.046875 C 15.488281 -26.242188 18.289062 -29.675781 21.25 -32.34375 C 24.207031 -35.007812 27.023438 -36.34375 29.703125 -36.34375 C 31.253906 -36.34375 32.53125 -36.113281 33.53125 -35.65625 L 25.921875 0 L 18.9375 0 L 22.671875 -17.59375 C 21.484375 -18.132812 20.382812 -18.535156 19.375 -18.796875 C 18.375 -19.054688 17.3125 -19.234375 16.1875 -19.328125 C 14.34375 -15.359375 12.832031 -11.296875 11.65625 -7.140625 C 10.476562 -2.992188 9.890625 0.320312 9.890625 2.8125 C 9.890625 4.039062 10.113281 4.945312 10.5625 5.53125 Z M 25.921875 -32.90625 C 24.535156 -32.15625 23.085938 -30.769531 21.578125 -28.75 C 20.078125 -26.738281 18.617188 -24.296875 17.203125 -21.421875 C 19.523438 -20.960938 21.492188 -20.394531 23.109375 -19.71875 Z M 25.921875 -32.90625 "/></g></g></g><g fill="#000000" fill-opacity="1"><g transform="translate(241.659045, 248.034358)"><g><path d="M 3.6875 -26.015625 L 10.65625 -26.015625 L 9.890625 -22.390625 C 11.503906 -23.773438 13.390625 -24.46875 15.546875 -24.46875 C 17.359375 -24.46875 18.796875 -23.867188 19.859375 -22.671875 C 20.929688 -21.484375 21.46875 -19.53125 21.46875 -16.8125 C 21.46875 -14.257812 21.09375 -11.679688 20.34375 -9.078125 C 19.601562 -6.484375 18.34375 -4.269531 16.5625 -2.4375 C 14.789062 -0.613281 12.453125 0.296875 9.546875 0.296875 C 7.472656 0.296875 6.097656 -0.285156 5.421875 -1.453125 L 2.90625 10.375 L -4.40625 12.109375 Z M 8.046875 -3.921875 C 9.597656 -3.921875 10.878906 -4.644531 11.890625 -6.09375 C 12.910156 -7.550781 13.65625 -9.289062 14.125 -11.3125 C 14.59375 -13.332031 14.828125 -15.210938 14.828125 -16.953125 C 14.828125 -19.640625 14.019531 -20.984375 12.40625 -20.984375 C 11.820312 -20.984375 11.226562 -20.769531 10.625 -20.34375 C 10.03125 -19.925781 9.507812 -19.347656 9.0625 -18.609375 L 6.203125 -5.046875 C 6.460938 -4.296875 7.078125 -3.921875 8.046875 -3.921875 Z M 8.046875 -3.921875 "/></g></g></g><g fill="#000000" fill-opacity="1"><g transform="translate(264.336907, 248.034358)"><g><path d="M 3.6875 -26.015625 L 10.65625 -26.015625 L 9.890625 -22.390625 C 11.503906 -23.773438 13.390625 -24.46875 15.546875 -24.46875 C 17.359375 -24.46875 18.796875 -23.867188 19.859375 -22.671875 C 20.929688 -21.484375 21.46875 -19.53125 21.46875 -16.8125 C 21.46875 -14.257812 21.09375 -11.679688 20.34375 -9.078125 C 19.601562 -6.484375 18.34375 -4.269531 16.5625 -2.4375 C 14.789062 -0.613281 12.453125 0.296875 9.546875 0.296875 C 7.472656 0.296875 6.097656 -0.285156 5.421875 -1.453125 L 2.90625 10.375 L -4.40625 12.109375 Z M 8.046875 -3.921875 C 9.597656 -3.921875 10.878906 -4.644531 11.890625 -6.09375 C 12.910156 -7.550781 13.65625 -9.289062 14.125 -11.3125 C 14.59375 -13.332031 14.828125 -15.210938 14.828125 -16.953125 C 14.828125 -19.640625 14.019531 -20.984375 12.40625 -20.984375 C 11.820312 -20.984375 11.226562 -20.769531 10.625 -20.34375 C 10.03125 -19.925781 9.507812 -19.347656 9.0625 -18.609375 L 6.203125 -5.046875 C 6.460938 -4.296875 7.078125 -3.921875 8.046875 -3.921875 Z M 8.046875 -3.921875 "/></g></g></g><g fill="#000000" fill-opacity="1"><g transform="translate(187.499992, 201.749987)"><g/></g></g></svg>